<mxfile host="app.diagrams.net" modified="2023-09-16T23:37:18.452Z" agent="Mozilla/5.0 (Windows NT 10.0; Win64; x64) AppleWebKit/537.36 (KHTML, like Gecko) Chrome/116.0.0.0 Safari/537.36" version="21.7.5" etag="H3MCrvgI58mTfyvpwXeT" type="github">
  <diagram name="Page-1" id="Ubbz-NXqLe9GD-rL9rNt">
    <mxGraphModel>
      <root>
        <mxCell id="0" />
        <mxCell id="1" parent="0" />
      </root>
    </mxGraphModel>
  </diagram>
</mxfile>
